0
SECTION
2
HEADER
9
$ACADVER
1
AC1021
9
$LASTSAVEDBY
1
@tarikjabiri/dxf
9
$HANDSEED
5
10D
9
$INSUNITS
70
0
9
$CLAYER
8
0
9
$VIEWCTR
10
9640
20
3840
0
ENDSEC
0
SECTION
2
CLASSES
0
ENDSEC
0
SECTION
2
TABLES
0
TABLE
2
VPORT
5
1
330
0
100
AcDbSymbolTable
70
1
0
VPORT
5
19
330
1
100
AcDbSymbolTableRecord
100
AcDbViewportTableRecord
2
*Active
70
0
10
0
20
0
11
1
21
1
12
9640
22
3840
13
0
23
0
14
10
24
10
15
10
25
10
16
0
26
0
36
1
17
0
27
0
37
0
40
10680
41
2
42
50
43
0
44
0
50
0
51
0
71
0
72
100
73
1
74
3
75
0
76
1
77
0
78
0
281
0
65
1
110
0
120
0
130
0
111
1
121
0
131
0
112
0
122
1
132
0
79
0
146
0
348
10020
60
7
61
5
292
1
282
1
141
0
142
0
63
250
421
3358443
0
ENDTAB
0
TABLE
2
LTYPE
5
2
330
0
100
AcDbSymbolTable
70
3
0
LTYPE
5
12
330
2
100
AcDbSymbolTableRecord
100
AcDbLinetypeTableRecord
2
ByBlock
70
0
3

72
65
73
0
40
0
0
LTYPE
5
13
330
2
100
AcDbSymbolTableRecord
100
AcDbLinetypeTableRecord
2
ByLayer
70
0
3

72
65
73
0
40
0
0
LTYPE
5
14
330
2
100
AcDbSymbolTableRecord
100
AcDbLinetypeTableRecord
2
Continuous
70
0
3
Solid line
72
65
73
0
40
0
0
ENDTAB
0
TABLE
2
LAYER
5
3
330
0
100
AcDbSymbolTable
70
8
0
LAYER
5
15
330
3
100
AcDbSymbolTableRecord
100
AcDbLayerTableRecord
2
0
70
0
62
7
6
Continuous
370
0
390
0
0
LAYER
5
1A
330
3
100
AcDbSymbolTableRecord
100
AcDbLayerTableRecord
2
壁
70
0
62
7
6
Continuous
370
0
390
0
0
LAYER
5
1B
330
3
100
AcDbSymbolTableRecord
100
AcDbLayerTableRecord
2
建具
70
0
62
7
6
Continuous
370
0
390
0
0
LAYER
5
1C
330
3
100
AcDbSymbolTableRecord
100
AcDbLayerTableRecord
2
階段
70
0
62
7
6
Continuous
370
0
390
0
0
LAYER
5
1D
330
3
100
AcDbSymbolTableRecord
100
AcDbLayerTableRecord
2
通り芯
70
0
62
7
6
Continuous
370
0
390
0
0
LAYER
5
1E
330
3
100
AcDbSymbolTableRecord
100
AcDbLayerTableRecord
2
文字
70
0
62
7
6
Continuous
370
0
390
0
0
LAYER
5
1F
330
3
100
AcDbSymbolTableRecord
100
AcDbLayerTableRecord
2
図枠
70
0
62
7
6
Continuous
370
0
390
0
0
LAYER
5
20
330
3
100
AcDbSymbolTableRecord
100
AcDbLayerTableRecord
2
壁芯
70
0
62
7
6
Continuous
370
0
390
0
0
ENDTAB
0
TABLE
2
STYLE
5
4
330
0
100
AcDbSymbolTable
70
1
0
STYLE
5
16
330
4
100
AcDbSymbolTableRecord
100
AcDbTextStyleTableRecord
2
Standard
70
0
40
0
41
1
50
0
71
0
42
1
3
txt
4

0
ENDTAB
0
TABLE
2
VIEW
5
5
330
0
100
AcDbSymbolTable
70
0
0
ENDTAB
0
TABLE
2
UCS
5
6
330
0
100
AcDbSymbolTable
70
0
0
ENDTAB
0
TABLE
2
APPID
5
7
330
0
100
AcDbSymbolTable
70
1
0
APPID
5
17
330
7
100
AcDbSymbolTableRecord
100
AcDbRegAppTableRecord
2
ACAD
70
0
0
ENDTAB
0
TABLE
2
DIMSTYLE
5
8
330
0
100
AcDbSymbolTable
70
1
100
AcDbDimStyleTable
0
DIMSTYLE
105
18
330
8
100
AcDbSymbolTableRecord
100
AcDbDimStyleTableRecord
2
Standard
70
0
340
16
0
ENDTAB
0
TABLE
2
BLOCK_RECORD
5
9
330
0
100
AcDbSymbolTable
70
2
0
BLOCK_RECORD
5
C
330
9
100
AcDbSymbolTableRecord
100
AcDbBlockTableRecord
2
*Model_Space
70
0
280
1
281
0
0
BLOCK_RECORD
5
F
330
9
100
AcDbSymbolTableRecord
100
AcDbBlockTableRecord
2
*Paper_Space
70
0
280
1
281
0
0
ENDTAB
0
ENDSEC
0
SECTION
2
BLOCKS
0
BLOCK
5
D
330
C
100
AcDbEntity
8
0
100
AcDbBlockBegin
2
*Model_Space
70
0
10
0
20
0
30
0
3
*Model_Space
1

0
ENDBLK
5
E
100
AcDbEntity
8
0
100
AcDbBlockEnd
0
BLOCK
5
10
330
F
100
AcDbEntity
8
0
100
AcDbBlockBegin
2
*Paper_Space
70
0
10
0
20
0
30
0
3
*Paper_Space
1

0
ENDBLK
5
11
100
AcDbEntity
8
0
100
AcDbBlockEnd
0
ENDSEC
0
SECTION
2
ENTITIES
0
LINE
5
21
330
C
100
AcDbEntity
8
壁
100
AcDbLine
10
0
20
75
30
0
11
1000
21
75
31
0
0
LINE
5
22
330
C
100
AcDbEntity
8
壁
100
AcDbLine
10
0
20
-75
30
0
11
1000
21
-75
31
0
0
LINE
5
23
330
C
100
AcDbEntity
8
壁
100
AcDbLine
10
2820
20
75
30
0
11
5000
21
75
31
0
0
LINE
5
24
330
C
100
AcDbEntity
8
壁
100
AcDbLine
10
2820
20
-75
30
0
11
5000
21
-75
31
0
0
LINE
5
25
330
C
100
AcDbEntity
8
壁
100
AcDbLine
10
5900
20
75
30
0
11
7280
21
75
31
0
0
LINE
5
26
330
C
100
AcDbEntity
8
壁
100
AcDbLine
10
5900
20
-75
30
0
11
7280
21
-75
31
0
0
LINE
5
27
330
C
100
AcDbEntity
8
壁芯
100
AcDbLine
10
0
20
0
30
0
11
7280
21
0
31
0
0
LINE
5
28
330
C
100
AcDbEntity
8
建具
100
AcDbLine
10
1000
20
25
30
0
11
2820
21
25
31
0
0
LINE
5
29
330
C
100
AcDbEntity
8
建具
100
AcDbLine
10
1000
20
-25
30
0
11
2820
21
-25
31
0
0
LINE
5
2A
330
C
100
AcDbEntity
8
建具
100
AcDbLine
10
5000
20
0
30
0
11
5000
21
900
31
0
0
ARC
5
2B
330
C
100
AcDbEntity
8
建具
100
AcDbCircle
10
5000
20
0
30
0
40
900
100
AcDbArc
50
0
51
90
0
LINE
5
2C
330
C
100
AcDbEntity
8
壁
100
AcDbLine
10
7205
20
0
30
0
11
7205
21
1200
31
0
0
LINE
5
2D
330
C
100
AcDbEntity
8
壁
100
AcDbLine
10
7355
20
0
30
0
11
7355
21
1200
31
0
0
LINE
5
2E
330
C
100
AcDbEntity
8
壁
100
AcDbLine
10
7205
20
2400
30
0
11
7205
21
5000
31
0
0
LINE
5
2F
330
C
100
AcDbEntity
8
壁
100
AcDbLine
10
7355
20
2400
30
0
11
7355
21
5000
31
0
0
LINE
5
30
330
C
100
AcDbEntity
8
壁
100
AcDbLine
10
7205
20
6200
30
0
11
7205
21
7280
31
0
0
LINE
5
31
330
C
100
AcDbEntity
8
壁
100
AcDbLine
10
7355
20
6200
30
0
11
7355
21
7280
31
0
0
LINE
5
32
330
C
100
AcDbEntity
8
壁芯
100
AcDbLine
10
7280
20
0
30
0
11
7280
21
7280
31
0
0
LINE
5
33
330
C
100
AcDbEntity
8
建具
100
AcDbLine
10
7255
20
1200
30
0
11
7255
21
2400
31
0
0
LINE
5
34
330
C
100
AcDbEntity
8
建具
100
AcDbLine
10
7305
20
1200
30
0
11
7305
21
2400
31
0
0
LINE
5
35
330
C
100
AcDbEntity
8
建具
100
AcDbLine
10
7255
20
5000
30
0
11
7255
21
6200
31
0
0
LINE
5
36
330
C
100
AcDbEntity
8
建具
100
AcDbLine
10
7305
20
5000
30
0
11
7305
21
6200
31
0
0
LINE
5
37
330
C
100
AcDbEntity
8
壁
100
AcDbLine
10
7280
20
7205
30
0
11
5780
21
7205
31
0
0
LINE
5
38
330
C
100
AcDbEntity
8
壁
100
AcDbLine
10
7280
20
7355
30
0
11
5780
21
7355
31
0
0
LINE
5
39
330
C
100
AcDbEntity
8
壁
100
AcDbLine
10
4130
20
7205
30
0
11
2280
21
7205
31
0
0
LINE
5
3A
330
C
100
AcDbEntity
8
壁
100
AcDbLine
10
4130
20
7355
30
0
11
2280
21
7355
31
0
0
LINE
5
3B
330
C
100
AcDbEntity
8
壁
100
AcDbLine
10
1080
20
7205
30
0
11
0
21
7205
31
0
0
LINE
5
3C
330
C
100
AcDbEntity
8
壁
100
AcDbLine
10
1080
20
7355
30
0
11
0
21
7355
31
0
0
LINE
5
3D
330
C
100
AcDbEntity
8
壁芯
100
AcDbLine
10
7280
20
7280
30
0
11
0
21
7280
31
0
0
LINE
5
3E
330
C
100
AcDbEntity
8
建具
100
AcDbLine
10
5780
20
7255
30
0
11
4130
21
7255
31
0
0
LINE
5
3F
330
C
100
AcDbEntity
8
建具
100
AcDbLine
10
5780
20
7305
30
0
11
4130
21
7305
31
0
0
LINE
5
40
330
C
100
AcDbEntity
8
建具
100
AcDbLine
10
2280
20
7255
30
0
11
1080
21
7255
31
0
0
LINE
5
41
330
C
100
AcDbEntity
8
建具
100
AcDbLine
10
2280
20
7305
30
0
11
1080
21
7305
31
0
0
LINE
5
42
330
C
100
AcDbEntity
8
壁
100
AcDbLine
10
75
20
7280
30
0
11
75
21
5280
31
0
0
LINE
5
43
330
C
100
AcDbEntity
8
壁
100
AcDbLine
10
-75
20
7280
30
0
11
-75
21
5280
31
0
0
LINE
5
44
330
C
100
AcDbEntity
8
壁
100
AcDbLine
10
75
20
3630
30
0
11
75
21
0
31
0
0
LINE
5
45
330
C
100
AcDbEntity
8
壁
100
AcDbLine
10
-75
20
3630
30
0
11
-75
21
0
31
0
0
LINE
5
46
330
C
100
AcDbEntity
8
壁芯
100
AcDbLine
10
0
20
7280
30
0
11
0
21
0
31
0
0
LINE
5
47
330
C
100
AcDbEntity
8
建具
100
AcDbLine
10
25
20
5280
30
0
11
25
21
3630
31
0
0
LINE
5
48
330
C
100
AcDbEntity
8
建具
100
AcDbLine
10
-25
20
5280
30
0
11
-25
21
3630
31
0
0
LINE
5
49
330
C
100
AcDbEntity
8
壁
100
AcDbLine
10
3580
20
0
30
0
11
3580
21
1000
31
0
0
LINE
5
4A
330
C
100
AcDbEntity
8
壁
100
AcDbLine
10
3700
20
0
30
0
11
3700
21
1000
31
0
0
LINE
5
4B
330
C
100
AcDbEntity
8
壁
100
AcDbLine
10
3580
20
1780
30
0
11
3580
21
5200
31
0
0
LINE
5
4C
330
C
100
AcDbEntity
8
壁
100
AcDbLine
10
3700
20
1780
30
0
11
3700
21
5200
31
0
0
LINE
5
4D
330
C
100
AcDbEntity
8
壁
100
AcDbLine
10
3580
20
5980
30
0
11
3580
21
7280
31
0
0
LINE
5
4E
330
C
100
AcDbEntity
8
壁
100
AcDbLine
10
3700
20
5980
30
0
11
3700
21
7280
31
0
0
LINE
5
4F
330
C
100
AcDbEntity
8
壁芯
100
AcDbLine
10
3640
20
0
30
0
11
3640
21
7280
31
0
0
LINE
5
50
330
C
100
AcDbEntity
8
建具
100
AcDbLine
10
3640
20
1000
30
0
11
4420
21
1000
31
0
0
ARC
5
51
330
C
100
AcDbEntity
8
建具
100
AcDbCircle
10
3640
20
1000
30
0
40
780
100
AcDbArc
50
0
51
90
0
LINE
5
52
330
C
100
AcDbEntity
8
建具
100
AcDbLine
10
3640
20
5200
30
0
11
2860
21
5200
31
0
0
ARC
5
53
330
C
100
AcDbEntity
8
建具
100
AcDbCircle
10
3640
20
5200
30
0
40
780
100
AcDbArc
50
90
51
180
0
LINE
5
54
330
C
100
AcDbEntity
8
壁
100
AcDbLine
10
3640
20
3700
30
0
11
6140
21
3700
31
0
0
LINE
5
55
330
C
100
AcDbEntity
8
壁
100
AcDbLine
10
3640
20
3580
30
0
11
6140
21
3580
31
0
0
LINE
5
56
330
C
100
AcDbEntity
8
壁
100
AcDbLine
10
6920
20
3700
30
0
11
7280
21
3700
31
0
0
LINE
5
57
330
C
100
AcDbEntity
8
壁
100
AcDbLine
10
6920
20
3580
30
0
11
7280
21
3580
31
0
0
LINE
5
58
330
C
100
AcDbEntity
8
壁芯
100
AcDbLine
10
3640
20
3640
30
0
11
7280
21
3640
31
0
0
LINE
5
59
330
C
100
AcDbEntity
8
建具
100
AcDbLine
10
6140
20
3640
30
0
11
6140
21
4420
31
0
0
ARC
5
5A
330
C
100
AcDbEntity
8
建具
100
AcDbCircle
10
6140
20
3640
30
0
40
780
100
AcDbArc
50
0
51
90
0
LINE
5
5B
330
C
100
AcDbEntity
8
壁
100
AcDbLine
10
4490
20
0
30
0
11
4490
21
2000
31
0
0
LINE
5
5C
330
C
100
AcDbEntity
8
壁
100
AcDbLine
10
4610
20
0
30
0
11
4610
21
2000
31
0
0
LINE
5
5D
330
C
100
AcDbEntity
8
壁
100
AcDbLine
10
4490
20
2780
30
0
11
4490
21
3640
31
0
0
LINE
5
5E
330
C
100
AcDbEntity
8
壁
100
AcDbLine
10
4610
20
2780
30
0
11
4610
21
3640
31
0
0
LINE
5
5F
330
C
100
AcDbEntity
8
壁芯
100
AcDbLine
10
4550
20
0
30
0
11
4550
21
3640
31
0
0
LINE
5
60
330
C
100
AcDbEntity
8
建具
100
AcDbLine
10
4550
20
2000
30
0
11
3770
21
2000
31
0
0
ARC
5
61
330
C
100
AcDbEntity
8
建具
100
AcDbCircle
10
4550
20
2000
30
0
40
780
100
AcDbArc
50
90
51
180
0
LINE
5
62
330
C
100
AcDbEntity
8
階段
100
AcDbLine
10
3700
20
3840
30
0
11
4490
21
3840
31
0
0
LINE
5
63
330
C
100
AcDbEntity
8
階段
100
AcDbLine
10
3700
20
4140
30
0
11
4490
21
4140
31
0
0
LINE
5
64
330
C
100
AcDbEntity
8
階段
100
AcDbLine
10
3700
20
4440
30
0
11
4490
21
4440
31
0
0
LINE
5
65
330
C
100
AcDbEntity
8
階段
100
AcDbLine
10
3700
20
4740
30
0
11
4490
21
4740
31
0
0
LINE
5
66
330
C
100
AcDbEntity
8
階段
100
AcDbLine
10
3700
20
5040
30
0
11
4490
21
5040
31
0
0
LINE
5
67
330
C
100
AcDbEntity
8
階段
100
AcDbLine
10
3700
20
5340
30
0
11
4490
21
5340
31
0
0
LINE
5
68
330
C
100
AcDbEntity
8
階段
100
AcDbLine
10
3700
20
5640
30
0
11
4490
21
5640
31
0
0
LINE
5
69
330
C
100
AcDbEntity
8
階段
100
AcDbLine
10
3700
20
5940
30
0
11
4490
21
5940
31
0
0
LINE
5
6A
330
C
100
AcDbEntity
8
階段
100
AcDbLine
10
3700
20
6240
30
0
11
4490
21
6240
31
0
0
LINE
5
6B
330
C
100
AcDbEntity
8
階段
100
AcDbLine
10
3700
20
6540
30
0
11
4490
21
6540
31
0
0
LINE
5
6C
330
C
100
AcDbEntity
8
階段
100
AcDbLine
10
3700
20
3840
30
0
11
3700
21
6540
31
0
0
LINE
5
6D
330
C
100
AcDbEntity
8
階段
100
AcDbLine
10
4490
20
3840
30
0
11
4490
21
6540
31
0
0
LINE
5
6E
330
C
100
AcDbEntity
8
階段
100
AcDbLine
10
4095
20
3940
30
0
11
4095
21
6440
31
0
0
LINE
5
6F
330
C
100
AcDbEntity
8
階段
100
AcDbLine
10
4095
20
6440
30
0
11
4015
21
6290
31
0
0
LINE
5
70
330
C
100
AcDbEntity
8
階段
100
AcDbLine
10
4095
20
6440
30
0
11
4175
21
6290
31
0
0
TEXT
5
71
330
C
100
AcDbEntity
8
文字
100
AcDbText
10
3975
20
3590
30
0
40
200
1
UP
7
STANDARD
100
AcDbText
0
TEXT
5
72
330
C
100
AcDbEntity
8
文字
100
AcDbText
10
1200
20
3600
30
0
40
250
1
LDK
7
STANDARD
100
AcDbText
0
TEXT
5
73
330
C
100
AcDbEntity
8
文字
100
AcDbText
10
4500
20
5500
30
0
40
250
1
和室
7
STANDARD
100
AcDbText
0
TEXT
5
74
330
C
100
AcDbEntity
8
文字
100
AcDbText
10
6000
20
5500
30
0
40
250
1
浴室
7
STANDARD
100
AcDbText
0
TEXT
5
75
330
C
100
AcDbEntity
8
文字
100
AcDbText
10
6000
20
4200
30
0
40
250
1
洗面
7
STANDARD
100
AcDbText
0
TEXT
5
76
330
C
100
AcDbEntity
8
文字
100
AcDbText
10
5000
20
1500
30
0
40
250
1
廊下
7
STANDARD
100
AcDbText
0
TEXT
5
77
330
C
100
AcDbEntity
8
文字
100
AcDbText
10
6200
20
600
30
0
40
250
1
玄関
7
STANDARD
100
AcDbText
0
LINE
5
78
330
C
100
AcDbEntity
8
通り芯
100
AcDbLine
10
0
20
-1000
30
0
11
0
21
8280
31
0
0
CIRCLE
5
79
330
C
100
AcDbEntity
8
通り芯
100
AcDbCircle
10
0
20
-1250
30
0
40
250
0
TEXT
5
7A
330
C
100
AcDbEntity
8
通り芯
100
AcDbText
10
-120
20
-1350
30
0
40
200
1
X1
7
STANDARD
100
AcDbText
0
CIRCLE
5
7B
330
C
100
AcDbEntity
8
通り芯
100
AcDbCircle
10
0
20
8530
30
0
40
250
0
TEXT
5
7C
330
C
100
AcDbEntity
8
通り芯
100
AcDbText
10
-120
20
8430
30
0
40
200
1
X1
7
STANDARD
100
AcDbText
0
LINE
5
7D
330
C
100
AcDbEntity
8
通り芯
100
AcDbLine
10
3640
20
-1000
30
0
11
3640
21
8280
31
0
0
CIRCLE
5
7E
330
C
100
AcDbEntity
8
通り芯
100
AcDbCircle
10
3640
20
-1250
30
0
40
250
0
TEXT
5
7F
330
C
100
AcDbEntity
8
通り芯
100
AcDbText
10
3520
20
-1350
30
0
40
200
1
X2
7
STANDARD
100
AcDbText
0
CIRCLE
5
80
330
C
100
AcDbEntity
8
通り芯
100
AcDbCircle
10
3640
20
8530
30
0
40
250
0
TEXT
5
81
330
C
100
AcDbEntity
8
通り芯
100
AcDbText
10
3520
20
8430
30
0
40
200
1
X2
7
STANDARD
100
AcDbText
0
LINE
5
82
330
C
100
AcDbEntity
8
通り芯
100
AcDbLine
10
7280
20
-1000
30
0
11
7280
21
8280
31
0
0
CIRCLE
5
83
330
C
100
AcDbEntity
8
通り芯
100
AcDbCircle
10
7280
20
-1250
30
0
40
250
0
TEXT
5
84
330
C
100
AcDbEntity
8
通り芯
100
AcDbText
10
7160
20
-1350
30
0
40
200
1
X3
7
STANDARD
100
AcDbText
0
CIRCLE
5
85
330
C
100
AcDbEntity
8
通り芯
100
AcDbCircle
10
7280
20
8530
30
0
40
250
0
TEXT
5
86
330
C
100
AcDbEntity
8
通り芯
100
AcDbText
10
7160
20
8430
30
0
40
200
1
X3
7
STANDARD
100
AcDbText
0
LINE
5
87
330
C
100
AcDbEntity
8
通り芯
100
AcDbLine
10
-1000
20
0
30
0
11
8280
21
0
31
0
0
CIRCLE
5
88
330
C
100
AcDbEntity
8
通り芯
100
AcDbCircle
10
-1250
20
0
30
0
40
250
0
TEXT
5
89
330
C
100
AcDbEntity
8
通り芯
100
AcDbText
10
-1370
20
-100
30
0
40
200
1
Y1
7
STANDARD
100
AcDbText
0
CIRCLE
5
8A
330
C
100
AcDbEntity
8
通り芯
100
AcDbCircle
10
8530
20
0
30
0
40
250
0
TEXT
5
8B
330
C
100
AcDbEntity
8
通り芯
100
AcDbText
10
8410
20
-100
30
0
40
200
1
Y1
7
STANDARD
100
AcDbText
0
LINE
5
8C
330
C
100
AcDbEntity
8
通り芯
100
AcDbLine
10
-1000
20
3640
30
0
11
8280
21
3640
31
0
0
CIRCLE
5
8D
330
C
100
AcDbEntity
8
通り芯
100
AcDbCircle
10
-1250
20
3640
30
0
40
250
0
TEXT
5
8E
330
C
100
AcDbEntity
8
通り芯
100
AcDbText
10
-1370
20
3540
30
0
40
200
1
Y2
7
STANDARD
100
AcDbText
0
CIRCLE
5
8F
330
C
100
AcDbEntity
8
通り芯
100
AcDbCircle
10
8530
20
3640
30
0
40
250
0
TEXT
5
90
330
C
100
AcDbEntity
8
通り芯
100
AcDbText
10
8410
20
3540
30
0
40
200
1
Y2
7
STANDARD
100
AcDbText
0
LINE
5
91
330
C
100
AcDbEntity
8
通り芯
100
AcDbLine
10
-1000
20
7280
30
0
11
8280
21
7280
31
0
0
CIRCLE
5
92
330
C
100
AcDbEntity
8
通り芯
100
AcDbCircle
10
-1250
20
7280
30
0
40
250
0
TEXT
5
93
330
C
100
AcDbEntity
8
通り芯
100
AcDbText
10
-1370
20
7180
30
0
40
200
1
Y3
7
STANDARD
100
AcDbText
0
CIRCLE
5
94
330
C
100
AcDbEntity
8
通り芯
100
AcDbCircle
10
8530
20
7280
30
0
40
250
0
TEXT
5
95
330
C
100
AcDbEntity
8
通り芯
100
AcDbText
10
8410
20
7180
30
0
40
200
1
Y3
7
STANDARD
100
AcDbText
0
TEXT
5
96
330
C
100
AcDbEntity
8
図枠
100
AcDbText
10
2500
20
9080
30
0
40
350
1
1階平面図
7
STANDARD
100
AcDbText
0
LINE
5
97
330
C
100
AcDbEntity
8
壁
100
AcDbLine
10
12000
20
75
30
0
11
13000
21
75
31
0
0
LINE
5
98
330
C
100
AcDbEntity
8
壁
100
AcDbLine
10
12000
20
-75
30
0
11
13000
21
-75
31
0
0
LINE
5
99
330
C
100
AcDbEntity
8
壁
100
AcDbLine
10
14650
20
75
30
0
11
17000
21
75
31
0
0
LINE
5
9A
330
C
100
AcDbEntity
8
壁
100
AcDbLine
10
14650
20
-75
30
0
11
17000
21
-75
31
0
0
LINE
5
9B
330
C
100
AcDbEntity
8
壁
100
AcDbLine
10
18650
20
75
30
0
11
19280
21
75
31
0
0
LINE
5
9C
330
C
100
AcDbEntity
8
壁
100
AcDbLine
10
18650
20
-75
30
0
11
19280
21
-75
31
0
0
LINE
5
9D
330
C
100
AcDbEntity
8
壁芯
100
AcDbLine
10
12000
20
0
30
0
11
19280
21
0
31
0
0
LINE
5
9E
330
C
100
AcDbEntity
8
建具
100
AcDbLine
10
13000
20
25
30
0
11
14650
21
25
31
0
0
LINE
5
9F
330
C
100
AcDbEntity
8
建具
100
AcDbLine
10
13000
20
-25
30
0
11
14650
21
-25
31
0
0
LINE
5
A0
330
C
100
AcDbEntity
8
建具
100
AcDbLine
10
17000
20
25
30
0
11
18650
21
25
31
0
0
LINE
5
A1
330
C
100
AcDbEntity
8
建具
100
AcDbLine
10
17000
20
-25
30
0
11
18650
21
-25
31
0
0
LINE
5
A2
330
C
100
AcDbEntity
8
壁
100
AcDbLine
10
19205
20
0
30
0
11
19205
21
1200
31
0
0
LINE
5
A3
330
C
100
AcDbEntity
8
壁
100
AcDbLine
10
19355
20
0
30
0
11
19355
21
1200
31
0
0
LINE
5
A4
330
C
100
AcDbEntity
8
壁
100
AcDbLine
10
19205
20
2400
30
0
11
19205
21
5000
31
0
0
LINE
5
A5
330
C
100
AcDbEntity
8
壁
100
AcDbLine
10
19355
20
2400
30
0
11
19355
21
5000
31
0
0
LINE
5
A6
330
C
100
AcDbEntity
8
壁
100
AcDbLine
10
19205
20
6200
30
0
11
19205
21
7280
31
0
0
LINE
5
A7
330
C
100
AcDbEntity
8
壁
100
AcDbLine
10
19355
20
6200
30
0
11
19355
21
7280
31
0
0
LINE
5
A8
330
C
100
AcDbEntity
8
壁芯
100
AcDbLine
10
19280
20
0
30
0
11
19280
21
7280
31
0
0
LINE
5
A9
330
C
100
AcDbEntity
8
建具
100
AcDbLine
10
19255
20
1200
30
0
11
19255
21
2400
31
0
0
LINE
5
AA
330
C
100
AcDbEntity
8
建具
100
AcDbLine
10
19305
20
1200
30
0
11
19305
21
2400
31
0
0
LINE
5
AB
330
C
100
AcDbEntity
8
建具
100
AcDbLine
10
19255
20
5000
30
0
11
19255
21
6200
31
0
0
LINE
5
AC
330
C
100
AcDbEntity
8
建具
100
AcDbLine
10
19305
20
5000
30
0
11
19305
21
6200
31
0
0
LINE
5
AD
330
C
100
AcDbEntity
8
壁
100
AcDbLine
10
19280
20
7205
30
0
11
17780
21
7205
31
0
0
LINE
5
AE
330
C
100
AcDbEntity
8
壁
100
AcDbLine
10
19280
20
7355
30
0
11
17780
21
7355
31
0
0
LINE
5
AF
330
C
100
AcDbEntity
8
壁
100
AcDbLine
10
16130
20
7205
30
0
11
14280
21
7205
31
0
0
LINE
5
B0
330
C
100
AcDbEntity
8
壁
100
AcDbLine
10
16130
20
7355
30
0
11
14280
21
7355
31
0
0
LINE
5
B1
330
C
100
AcDbEntity
8
壁
100
AcDbLine
10
12630
20
7205
30
0
11
12000
21
7205
31
0
0
LINE
5
B2
330
C
100
AcDbEntity
8
壁
100
AcDbLine
10
12630
20
7355
30
0
11
12000
21
7355
31
0
0
LINE
5
B3
330
C
100
AcDbEntity
8
壁芯
100
AcDbLine
10
19280
20
7280
30
0
11
12000
21
7280
31
0
0
LINE
5
B4
330
C
100
AcDbEntity
8
建具
100
AcDbLine
10
17780
20
7255
30
0
11
16130
21
7255
31
0
0
LINE
5
B5
330
C
100
AcDbEntity
8
建具
100
AcDbLine
10
17780
20
7305
30
0
11
16130
21
7305
31
0
0
LINE
5
B6
330
C
100
AcDbEntity
8
建具
100
AcDbLine
10
14280
20
7255
30
0
11
12630
21
7255
31
0
0
LINE
5
B7
330
C
100
AcDbEntity
8
建具
100
AcDbLine
10
14280
20
7305
30
0
11
12630
21
7305
31
0
0
LINE
5
B8
330
C
100
AcDbEntity
8
壁
100
AcDbLine
10
12075
20
7280
30
0
11
12075
21
6080
31
0
0
LINE
5
B9
330
C
100
AcDbEntity
8
壁
100
AcDbLine
10
11925
20
7280
30
0
11
11925
21
6080
31
0
0
LINE
5
BA
330
C
100
AcDbEntity
8
壁
100
AcDbLine
10
12075
20
4880
30
0
11
12075
21
2280
31
0
0
LINE
5
BB
330
C
100
AcDbEntity
8
壁
100
AcDbLine
10
11925
20
4880
30
0
11
11925
21
2280
31
0
0
LINE
5
BC
330
C
100
AcDbEntity
8
壁
100
AcDbLine
10
12075
20
1080
30
0
11
12075
21
0
31
0
0
LINE
5
BD
330
C
100
AcDbEntity
8
壁
100
AcDbLine
10
11925
20
1080
30
0
11
11925
21
0
31
0
0
LINE
5
BE
330
C
100
AcDbEntity
8
壁芯
100
AcDbLine
10
12000
20
7280
30
0
11
12000
21
0
31
0
0
LINE
5
BF
330
C
100
AcDbEntity
8
建具
100
AcDbLine
10
12025
20
6080
30
0
11
12025
21
4880
31
0
0
LINE
5
C0
330
C
100
AcDbEntity
8
建具
100
AcDbLine
10
11975
20
6080
30
0
11
11975
21
4880
31
0
0
LINE
5
C1
330
C
100
AcDbEntity
8
建具
100
AcDbLine
10
12025
20
2280
30
0
11
12025
21
1080
31
0
0
LINE
5
C2
330
C
100
AcDbEntity
8
建具
100
AcDbLine
10
11975
20
2280
30
0
11
11975
21
1080
31
0
0
LINE
5
C3
330
C
100
AcDbEntity
8
壁
100
AcDbLine
10
15580
20
0
30
0
11
15580
21
1000
31
0
0
LINE
5
C4
330
C
100
AcDbEntity
8
壁
100
AcDbLine
10
15700
20
0
30
0
11
15700
21
1000
31
0
0
LINE
5
C5
330
C
100
AcDbEntity
8
壁
100
AcDbLine
10
15580
20
1780
30
0
11
15580
21
5200
31
0
0
LINE
5
C6
330
C
100
AcDbEntity
8
壁
100
AcDbLine
10
15700
20
1780
30
0
11
15700
21
5200
31
0
0
LINE
5
C7
330
C
100
AcDbEntity
8
壁
100
AcDbLine
10
15580
20
5980
30
0
11
15580
21
7280
31
0
0
LINE
5
C8
330
C
100
AcDbEntity
8
壁
100
AcDbLine
10
15700
20
5980
30
0
11
15700
21
7280
31
0
0
LINE
5
C9
330
C
100
AcDbEntity
8
壁芯
100
AcDbLine
10
15640
20
0
30
0
11
15640
21
7280
31
0
0
LINE
5
CA
330
C
100
AcDbEntity
8
建具
100
AcDbLine
10
15640
20
1000
30
0
11
16420
21
1000
31
0
0
ARC
5
CB
330
C
100
AcDbEntity
8
建具
100
AcDbCircle
10
15640
20
1000
30
0
40
780
100
AcDbArc
50
0
51
90
0
LINE
5
CC
330
C
100
AcDbEntity
8
建具
100
AcDbLine
10
15640
20
5200
30
0
11
14860
21
5200
31
0
0
ARC
5
CD
330
C
100
AcDbEntity
8
建具
100
AcDbCircle
10
15640
20
5200
30
0
40
780
100
AcDbArc
50
90
51
180
0
LINE
5
CE
330
C
100
AcDbEntity
8
壁
100
AcDbLine
10
12000
20
3700
30
0
11
13500
21
3700
31
0
0
LINE
5
CF
330
C
100
AcDbEntity
8
壁
100
AcDbLine
10
12000
20
3580
30
0
11
13500
21
3580
31
0
0
LINE
5
D0
330
C
100
AcDbEntity
8
壁
100
AcDbLine
10
14280
20
3700
30
0
11
17500
21
3700
31
0
0
LINE
5
D1
330
C
100
AcDbEntity
8
壁
100
AcDbLine
10
14280
20
3580
30
0
11
17500
21
3580
31
0
0
LINE
5
D2
330
C
100
AcDbEntity
8
壁
100
AcDbLine
10
18280
20
3700
30
0
11
19280
21
3700
31
0
0
LINE
5
D3
330
C
100
AcDbEntity
8
壁
100
AcDbLine
10
18280
20
3580
30
0
11
19280
21
3580
31
0
0
LINE
5
D4
330
C
100
AcDbEntity
8
壁芯
100
AcDbLine
10
12000
20
3640
30
0
11
19280
21
3640
31
0
0
LINE
5
D5
330
C
100
AcDbEntity
8
建具
100
AcDbLine
10
13500
20
3640
30
0
11
13500
21
4420
31
0
0
ARC
5
D6
330
C
100
AcDbEntity
8
建具
100
AcDbCircle
10
13500
20
3640
30
0
40
780
100
AcDbArc
50
0
51
90
0
LINE
5
D7
330
C
100
AcDbEntity
8
建具
100
AcDbLine
10
17500
20
3640
30
0
11
17500
21
4420
31
0
0
ARC
5
D8
330
C
100
AcDbEntity
8
建具
100
AcDbCircle
10
17500
20
3640
30
0
40
780
100
AcDbArc
50
0
51
90
0
LINE
5
D9
330
C
100
AcDbEntity
8
階段
100
AcDbLine
10
15700
20
3840
30
0
11
16490
21
3840
31
0
0
LINE
5
DA
330
C
100
AcDbEntity
8
階段
100
AcDbLine
10
15700
20
4140
30
0
11
16490
21
4140
31
0
0
LINE
5
DB
330
C
100
AcDbEntity
8
階段
100
AcDbLine
10
15700
20
4440
30
0
11
16490
21
4440
31
0
0
LINE
5
DC
330
C
100
AcDbEntity
8
階段
100
AcDbLine
10
15700
20
4740
30
0
11
16490
21
4740
31
0
0
LINE
5
DD
330
C
100
AcDbEntity
8
階段
100
AcDbLine
10
15700
20
5040
30
0
11
16490
21
5040
31
0
0
LINE
5
DE
330
C
100
AcDbEntity
8
階段
100
AcDbLine
10
15700
20
5340
30
0
11
16490
21
5340
31
0
0
LINE
5
DF
330
C
100
AcDbEntity
8
階段
100
AcDbLine
10
15700
20
5640
30
0
11
16490
21
5640
31
0
0
LINE
5
E0
330
C
100
AcDbEntity
8
階段
100
AcDbLine
10
15700
20
5940
30
0
11
16490
21
5940
31
0
0
LINE
5
E1
330
C
100
AcDbEntity
8
階段
100
AcDbLine
10
15700
20
6240
30
0
11
16490
21
6240
31
0
0
LINE
5
E2
330
C
100
AcDbEntity
8
階段
100
AcDbLine
10
15700
20
6540
30
0
11
16490
21
6540
31
0
0
LINE
5
E3
330
C
100
AcDbEntity
8
階段
100
AcDbLine
10
15700
20
3840
30
0
11
15700
21
6540
31
0
0
LINE
5
E4
330
C
100
AcDbEntity
8
階段
100
AcDbLine
10
16490
20
3840
30
0
11
16490
21
6540
31
0
0
LINE
5
E5
330
C
100
AcDbEntity
8
階段
100
AcDbLine
10
16095
20
6440
30
0
11
16095
21
3940
31
0
0
LINE
5
E6
330
C
100
AcDbEntity
8
階段
100
AcDbLine
10
16095
20
3940
30
0
11
16015
21
4090
31
0
0
LINE
5
E7
330
C
100
AcDbEntity
8
階段
100
AcDbLine
10
16095
20
3940
30
0
11
16175
21
4090
31
0
0
TEXT
5
E8
330
C
100
AcDbEntity
8
文字
100
AcDbText
10
15975
20
6590
30
0
40
200
1
DN
7
STANDARD
100
AcDbText
0
TEXT
5
E9
330
C
100
AcDbEntity
8
文字
100
AcDbText
10
13200
20
5500
30
0
40
250
1
洋室A
7
STANDARD
100
AcDbText
0
TEXT
5
EA
330
C
100
AcDbEntity
8
文字
100
AcDbText
10
17500
20
5500
30
0
40
250
1
洋室B
7
STANDARD
100
AcDbText
0
TEXT
5
EB
330
C
100
AcDbEntity
8
文字
100
AcDbText
10
13200
20
1500
30
0
40
250
1
洋室C
7
STANDARD
100
AcDbText
0
TEXT
5
EC
330
C
100
AcDbEntity
8
文字
100
AcDbText
10
17500
20
1500
30
0
40
250
1
洋室D
7
STANDARD
100
AcDbText
0
TEXT
5
ED
330
C
100
AcDbEntity
8
文字
100
AcDbText
10
16200
20
1500
30
0
40
250
1
廊下
7
STANDARD
100
AcDbText
0
LINE
5
EE
330
C
100
AcDbEntity
8
通り芯
100
AcDbLine
10
12000
20
-1000
30
0
11
12000
21
8280
31
0
0
CIRCLE
5
EF
330
C
100
AcDbEntity
8
通り芯
100
AcDbCircle
10
12000
20
-1250
30
0
40
250
0
TEXT
5
F0
330
C
100
AcDbEntity
8
通り芯
100
AcDbText
10
11880
20
-1350
30
0
40
200
1
X1
7
STANDARD
100
AcDbText
0
CIRCLE
5
F1
330
C
100
AcDbEntity
8
通り芯
100
AcDbCircle
10
12000
20
8530
30
0
40
250
0
TEXT
5
F2
330
C
100
AcDbEntity
8
通り芯
100
AcDbText
10
11880
20
8430
30
0
40
200
1
X1
7
STANDARD
100
AcDbText
0
LINE
5
F3
330
C
100
AcDbEntity
8
通り芯
100
AcDbLine
10
15640
20
-1000
30
0
11
15640
21
8280
31
0
0
CIRCLE
5
F4
330
C
100
AcDbEntity
8
通り芯
100
AcDbCircle
10
15640
20
-1250
30
0
40
250
0
TEXT
5
F5
330
C
100
AcDbEntity
8
通り芯
100
AcDbText
10
15520
20
-1350
30
0
40
200
1
X2
7
STANDARD
100
AcDbText
0
CIRCLE
5
F6
330
C
100
AcDbEntity
8
通り芯
100
AcDbCircle
10
15640
20
8530
30
0
40
250
0
TEXT
5
F7
330
C
100
AcDbEntity
8
通り芯
100
AcDbText
10
15520
20
8430
30
0
40
200
1
X2
7
STANDARD
100
AcDbText
0
LINE
5
F8
330
C
100
AcDbEntity
8
通り芯
100
AcDbLine
10
19280
20
-1000
30
0
11
19280
21
8280
31
0
0
CIRCLE
5
F9
330
C
100
AcDbEntity
8
通り芯
100
AcDbCircle
10
19280
20
-1250
30
0
40
250
0
TEXT
5
FA
330
C
100
AcDbEntity
8
通り芯
100
AcDbText
10
19160
20
-1350
30
0
40
200
1
X3
7
STANDARD
100
AcDbText
0
CIRCLE
5
FB
330
C
100
AcDbEntity
8
通り芯
100
AcDbCircle
10
19280
20
8530
30
0
40
250
0
TEXT
5
FC
330
C
100
AcDbEntity
8
通り芯
100
AcDbText
10
19160
20
8430
30
0
40
200
1
X3
7
STANDARD
100
AcDbText
0
LINE
5
FD
330
C
100
AcDbEntity
8
通り芯
100
AcDbLine
10
11000
20
0
30
0
11
20280
21
0
31
0
0
CIRCLE
5
FE
330
C
100
AcDbEntity
8
通り芯
100
AcDbCircle
10
10750
20
0
30
0
40
250
0
TEXT
5
FF
330
C
100
AcDbEntity
8
通り芯
100
AcDbText
10
10630
20
-100
30
0
40
200
1
Y1
7
STANDARD
100
AcDbText
0
CIRCLE
5
100
330
C
100
AcDbEntity
8
通り芯
100
AcDbCircle
10
20530
20
0
30
0
40
250
0
TEXT
5
101
330
C
100
AcDbEntity
8
通り芯
100
AcDbText
10
20410
20
-100
30
0
40
200
1
Y1
7
STANDARD
100
AcDbText
0
LINE
5
102
330
C
100
AcDbEntity
8
通り芯
100
AcDbLine
10
11000
20
3640
30
0
11
20280
21
3640
31
0
0
CIRCLE
5
103
330
C
100
AcDbEntity
8
通り芯
100
AcDbCircle
10
10750
20
3640
30
0
40
250
0
TEXT
5
104
330
C
100
AcDbEntity
8
通り芯
100
AcDbText
10
10630
20
3540
30
0
40
200
1
Y2
7
STANDARD
100
AcDbText
0
CIRCLE
5
105
330
C
100
AcDbEntity
8
通り芯
100
AcDbCircle
10
20530
20
3640
30
0
40
250
0
TEXT
5
106
330
C
100
AcDbEntity
8
通り芯
100
AcDbText
10
20410
20
3540
30
0
40
200
1
Y2
7
STANDARD
100
AcDbText
0
LINE
5
107
330
C
100
AcDbEntity
8
通り芯
100
AcDbLine
10
11000
20
7280
30
0
11
20280
21
7280
31
0
0
CIRCLE
5
108
330
C
100
AcDbEntity
8
通り芯
100
AcDbCircle
10
10750
20
7280
30
0
40
250
0
TEXT
5
109
330
C
100
AcDbEntity
8
通り芯
100
AcDbText
10
10630
20
7180
30
0
40
200
1
Y3
7
STANDARD
100
AcDbText
0
CIRCLE
5
10A
330
C
100
AcDbEntity
8
通り芯
100
AcDbCircle
10
20530
20
7280
30
0
40
250
0
TEXT
5
10B
330
C
100
AcDbEntity
8
通り芯
100
AcDbText
10
20410
20
7180
30
0
40
200
1
Y3
7
STANDARD
100
AcDbText
0
TEXT
5
10C
330
C
100
AcDbEntity
8
図枠
100
AcDbText
10
14500
20
9080
30
0
40
350
1
2階平面図
7
STANDARD
100
AcDbText
0
ENDSEC
0
SECTION
2
OBJECTS
0
DICTIONARY
5
A
330
0
100
AcDbDictionary
281
1
3
ACAD_GROUP
350
B
0
DICTIONARY
5
B
330
A
100
AcDbDictionary
281
0
0
ENDSEC
0
EOF